<?xml version="1.0" encoding="UTF-8" standalone="no"?>
<svg
   xmlns:dc="http://purl.org/dc/elements/1.1/"
   xmlns:cc="http://creativecommons.org/ns#"
   xmlns:rdf="http://www.w3.org/1999/02/22-rdf-syntax-ns#"
   xmlns:svg="http://www.w3.org/2000/svg"
   xmlns="http://www.w3.org/2000/svg"
   xmlns:sodipodi="http://sodipodi.sourceforge.net/DTD/sodipodi-0.dtd"
   xmlns:inkscape="http://www.inkscape.org/namespaces/inkscape"
   id="Layer_1"
   data-name="Layer 1"
   viewBox="0 0 336 64"
   version="1.1"
   sodipodi:docname="Johns Hopkins University.svg"
   width="336"
   height="64"
   inkscape:export-filename="jhu.png"
   inkscape:export-xdpi="96"
   inkscape:export-ydpi="96"
   inkscape:version="1.0 (4035a4fb49, 2020-05-01)">
  <metadata
     id="metadata111">
    <rdf:RDF>
      <cc:Work
         rdf:about="">
        <dc:format>image/svg+xml</dc:format>
        <dc:type
           rdf:resource="http://purl.org/dc/dcmitype/StillImage" />
        <dc:title>Johns Hopkins University</dc:title>
      </cc:Work>
    </rdf:RDF>
  </metadata>
  <defs
     id="defs109" />
  <sodipodi:namedview
     inkscape:document-rotation="0"
     pagecolor="#ffffff"
     bordercolor="#666666"
     borderopacity="1"
     objecttolerance="10"
     gridtolerance="10"
     guidetolerance="10"
     inkscape:pageopacity="0"
     inkscape:pageshadow="2"
     inkscape:window-width="640"
     inkscape:window-height="480"
     id="namedview107"
     showgrid="false"
     fit-margin-top="0"
     fit-margin-left="0"
     fit-margin-right="0"
     fit-margin-bottom="0"
     inkscape:zoom="4.7797357"
     inkscape:cx="128.43466"
     inkscape:cy="21.51"
     inkscape:current-layer="Layer_1" />
  <title
     id="title2">Johns Hopkins University</title>
  <g
     id="g987"
     transform="matrix(1.4806964,0,0,1.486965,3.6641555e-4,0.06050435)"
     style="stroke-width:0.673932">
    <path
       id="path4"
       d="m 80,34.68 a 9,9 0 0 0 -0.23,-2.56 0.77,0.77 0 0 0 -0.62,-0.26 h -0.31 a 0.23,0.23 0 0 1 0,-0.3 c 0.47,0 0.93,0 1.41,0 0.48,0 0.85,0 1.3,0 a 0.22,0.22 0 0 1 0,0.3 h -0.3 a 0.72,0.72 0 0 0 -0.62,0.3 11.16,11.16 0 0 0 -0.17,2.53 v 1.4 a 4.31,4.31 0 0 1 -0.87,3 3.27,3.27 0 0 1 -2.37,0.91 3.53,3.53 0 0 1 -2.32,-0.68 3.54,3.54 0 0 1 -1,-2.92 v -2.98 c 0,-1.29 0,-1.5 -0.74,-1.56 h -0.31 a 0.23,0.23 0 0 1 0,-0.3 c 0.62,0 1,0 1.54,0 0.54,0 0.92,0 1.52,0 a 0.23,0.23 0 0 1 0,0.3 h -0.3 C 75,31.92 75,32.13 75,33.42 v 2.68 c 0,2 0.62,3.31 2.52,3.31 1.9,0 2.48,-1.41 2.48,-3.31 z"
       style="stroke-width:0.673932" />
    <path
       id="path6"
       d="m 96.18,37.64 c 0,0.37 0,1.85 0,2.17 a 0.22,0.22 0 0 1 -0.23,0.14 C 95.8,39.74 95.44,39.31 94.36,38.08 L 91.52,34.8 c -0.34,-0.38 -1.18,-1.4 -1.44,-1.67 v 0 a 3.18,3.18 0 0 0 -0.06,0.8 v 2.7 a 9.69,9.69 0 0 0 0.23,2.57 0.81,0.81 0 0 0 0.63,0.23 h 0.38 a 0.22,0.22 0 0 1 0,0.31 c -0.56,0 -1,0 -1.45,0 -0.45,0 -0.85,0 -1.29,0 a 0.23,0.23 0 0 1 0,-0.31 h 0.33 a 0.66,0.66 0 0 0 0.55,-0.25 11.93,11.93 0 0 0 0.16,-2.55 v -3.57 a 1.14,1.14 0 0 0 -0.27,-0.89 1.36,1.36 0 0 0 -0.77,-0.3 h -0.21 a 0.22,0.22 0 0 1 0,-0.31 c 0.52,0 1.18,0 1.4,0 a 3.91,3.91 0 0 0 0.57,0 17.09,17.09 0 0 0 2.12,2.73 l 1.2,1.35 c 0.86,1 1.46,1.65 2,2.24 v 0 a 1.22,1.22 0 0 0 0.05,-0.52 V 34.68 A 8.76,8.76 0 0 0 95.4,32.12 1.1,1.1 0 0 0 94.63,31.87 h -0.21 a 0.21,0.21 0 0 1 0,-0.31 c 0.57,0 1,0 1.46,0 0.46,0 0.85,0 1.27,0 a 0.22,0.22 0 0 1 0,0.31 h -0.17 a 1.07,1.07 0 0 0 -0.69,0.26 10,10 0 0 0 -0.19,2.55 v 3 z"
       style="stroke-width:0.673932" />
    <path
       id="path8"
       d="m 105.41,33.45 c 0,-1.31 0,-1.53 -0.76,-1.59 h -0.31 a 0.24,0.24 0 0 1 0,-0.31 c 0.62,0 1,0 1.56,0 0.56,0 0.92,0 1.54,0 a 0.25,0.25 0 0 1 0,0.31 h -0.31 c -0.73,0.06 -0.76,0.27 -0.76,1.59 v 4.41 c 0,1.31 0,1.49 0.76,1.57 h 0.31 a 0.24,0.24 0 0 1 0,0.31 c -0.62,0 -1,0 -1.54,0 -0.54,0 -0.94,0 -1.56,0 a 0.24,0.24 0 0 1 0,-0.31 h 0.31 c 0.73,-0.09 0.76,-0.26 0.76,-1.57 z"
       style="stroke-width:0.673932" />
    <path
       id="path10"
       d="m 115.45,32.88 a 1.19,1.19 0 0 0 -1,-1 h -0.22 a 0.21,0.21 0 0 1 0,-0.31 c 0.36,0 0.76,0 1.29,0 0.53,0 1,0 1.5,0 a 0.22,0.22 0 0 1 0,0.31 h -0.19 c -0.47,0.06 -0.57,0.13 -0.58,0.23 a 15.34,15.34 0 0 0 0.62,1.74 c 0.57,1.44 1.14,2.86 1.76,4.28 0.38,-0.82 0.9,-2.09 1.19,-2.75 0.36,-0.84 0.94,-2.24 1.15,-2.78 a 1.3,1.3 0 0 0 0.11,-0.48 c 0,-0.09 -0.12,-0.19 -0.56,-0.23 h -0.22 a 0.22,0.22 0 0 1 0,-0.31 c 0.35,0 0.82,0 1.29,0 0.47,0 0.79,0 1.2,0 a 0.25,0.25 0 0 1 0,0.31 h -0.37 a 0.79,0.79 0 0 0 -0.65,0.43 30.25,30.25 0 0 0 -1.39,2.85 l -0.67,1.52 c -0.5,1.14 -1.08,2.58 -1.29,3.24 a 0.26,0.26 0 0 1 -0.13,0 0.54,0.54 0 0 1 -0.19,0 14.48,14.48 0 0 0 -0.57,-1.65 z"
       style="stroke-width:0.673932" />
    <path
       id="path12"
       d="m 130.36,33.43 c 0,-1.29 0,-1.48 -0.76,-1.56 h -0.2 a 0.25,0.25 0 0 1 0,-0.31 c 0.53,0 1,0 1.46,0 h 2.33 a 16.64,16.64 0 0 0 1.67,0 14.18,14.18 0 0 1 0.2,1.65 0.25,0.25 0 0 1 -0.31,0 1.34,1.34 0 0 0 -0.94,-1.18 5.88,5.88 0 0 0 -1.2,-0.07 h -0.89 c -0.37,0 -0.37,0 -0.37,0.5 v 2.48 c 0,0.35 0,0.35 0.41,0.35 h 0.72 a 4.55,4.55 0 0 0 1.05,-0.08 0.44,0.44 0 0 0 0.3,-0.43 l 0.1,-0.51 a 0.24,0.24 0 0 1 0.32,0 c 0,0.3 -0.05,0.78 -0.05,1.25 0,0.47 0.05,0.92 0.05,1.19 a 0.24,0.24 0 0 1 -0.32,0 l -0.11,-0.48 a 0.53,0.53 0 0 0 -0.38,-0.47 4.08,4.08 0 0 0 -1,-0.06 h -0.72 c -0.37,0 -0.41,0 -0.41,0.34 v 1.75 a 2,2 0 0 0 0.23,1.29 2,2 0 0 0 1.5,0.29 3.62,3.62 0 0 0 1.59,-0.19 3.08,3.08 0 0 0 0.88,-1.2 0.23,0.23 0 0 1 0.31,0.09 10.57,10.57 0 0 1 -0.56,1.72 c -1.11,0 -2.22,0 -3.32,0 h -1.04 c -0.53,0 -1,0 -1.69,0 a 0.24,0.24 0 0 1 0,-0.31 h 0.41 c 0.71,-0.06 0.77,-0.25 0.77,-1.55 v -4.5 z"
       style="stroke-width:0.673932" />
    <path
       id="path14"
       d="m 143.79,33.44 c 0,-1.18 0,-1.39 -0.54,-1.45 h -0.4 a 0.21,0.21 0 0 1 0,-0.31 c 0.69,-0.06 1.55,-0.1 2.76,-0.1 a 4.38,4.38 0 0 1 2.07,0.37 1.85,1.85 0 0 1 1,1.74 2.29,2.29 0 0 1 -1.55,2.07 0.29,0.29 0 0 0 0.06,0.3 13.29,13.29 0 0 0 2.49,3.29 1.48,1.48 0 0 0 0.86,0.35 0.1,0.1 0 0 1 0,0.17 2,2 0 0 1 -0.54,0.06 c -1.06,0 -1.69,-0.31 -2.56,-1.56 -0.32,-0.46 -0.83,-1.31 -1.22,-1.87 a 0.88,0.88 0 0 0 -0.88,-0.4 c -0.56,0 -0.58,0 -0.58,0.27 v 1.56 c 0,1.3 0,1.45 0.74,1.55 h 0.26 a 0.24,0.24 0 0 1 0,0.31 c -0.56,0 -1,0 -1.47,0 -0.47,0 -1,0 -1.55,0 a 0.24,0.24 0 0 1 0,-0.31 h 0.31 c 0.72,-0.09 0.74,-0.25 0.74,-1.55 z m 1,1.77 a 1,1 0 0 0 0,0.41 2.29,2.29 0 0 0 0.85,0.06 2.07,2.07 0 0 0 1.28,-0.32 1.78,1.78 0 0 0 0.62,-1.54 1.83,1.83 0 0 0 -2,-1.91 c -0.77,0 -0.8,0 -0.8,0.4 v 2.9 z"
       style="stroke-width:0.673932" />
    <path
       id="path16"
       d="m 158.77,39.95 a 3.87,3.87 0 0 1 -1.93,-0.46 5.76,5.76 0 0 1 -0.33,-1.73 0.22,0.22 0 0 1 0.3,0 2.25,2.25 0 0 0 2.13,1.85 1.41,1.41 0 0 0 1.55,-1.42 1.86,1.86 0 0 0 -1,-1.73 l -1.18,-0.77 A 2.64,2.64 0 0 1 157,33.5 a 2.23,2.23 0 0 1 2.53,-2.13 4.86,4.86 0 0 1 1.15,0.16 1.59,1.59 0 0 0 0.43,0.07 5.45,5.45 0 0 1 0.22,1.51 0.24,0.24 0 0 1 -0.31,0 1.62,1.62 0 0 0 -1.69,-1.4 1.3,1.3 0 0 0 -1.47,1.38 1.94,1.94 0 0 0 1.05,1.52 l 1,0.62 a 2.79,2.79 0 0 1 1.55,2.38 2.34,2.34 0 0 1 -2.64,2.29"
       style="stroke-width:0.673932" />
    <path
       id="path18"
       d="m 169.84,33.45 c 0,-1.31 0,-1.53 -0.76,-1.59 h -0.31 a 0.24,0.24 0 0 1 0,-0.31 c 0.62,0 1,0 1.56,0 0.56,0 0.92,0 1.54,0 a 0.24,0.24 0 0 1 0,0.31 h -0.31 c -0.73,0.06 -0.75,0.27 -0.75,1.59 v 4.41 c 0,1.31 0,1.49 0.75,1.57 h 0.31 a 0.24,0.24 0 0 1 0,0.31 c -0.62,0 -1,0 -1.54,0 -0.54,0 -0.94,0 -1.56,0 a 0.24,0.24 0 0 1 0,-0.31 h 0.31 c 0.73,-0.09 0.76,-0.26 0.76,-1.57 z"
       style="stroke-width:0.673932" />
    <path
       id="path20"
       d="m 183.59,37.89 c 0,1.3 0,1.49 0.74,1.55 h 0.4 a 0.25,0.25 0 0 1 0,0.31 c -0.71,0 -1.13,0 -1.62,0 -0.49,0 -0.93,0 -1.72,0 a 0.22,0.22 0 0 1 0,-0.31 h 0.45 c 0.71,-0.06 0.77,-0.25 0.77,-1.55 v -5.54 c 0,-0.38 0,-0.4 -0.37,-0.4 h -0.68 a 2.54,2.54 0 0 0 -1.52,0.31 2.27,2.27 0 0 0 -0.56,0.86 0.24,0.24 0 0 1 -0.32,-0.09 12.92,12.92 0 0 0 0.47,-1.85 0.32,0.32 0 0 1 0.24,0 c 0.08,0.4 0.49,0.38 1.06,0.38 h 5 c 0.67,0 0.78,0 1,-0.35 a 0.23,0.23 0 0 1 0.22,0 7.44,7.44 0 0 0 -0.19,1.88 0.23,0.23 0 0 1 -0.32,0 1.59,1.59 0 0 0 -0.31,-0.9 2.47,2.47 0 0 0 -1.44,-0.31 H 184 c -0.37,0 -0.36,0 -0.36,0.42 v 5.52 z"
       style="stroke-width:0.673932" />
    <path
       id="path22"
       d="m 197.72,37.86 c 0,1.32 0.07,1.52 0.74,1.57 h 0.47 a 0.24,0.24 0 0 1 0,0.31 c -0.77,0 -1.19,0 -1.69,0 -0.5,0 -1,0 -1.62,0 a 0.24,0.24 0 0 1 0,-0.31 h 0.39 c 0.72,-0.07 0.74,-0.25 0.74,-1.57 v -0.63 a 2.5,2.5 0 0 0 -0.39,-1.54 l -1.46,-2.85 c -0.42,-0.82 -0.61,-0.88 -1,-0.94 l -0.35,-0.06 a 0.23,0.23 0 0 1 0,-0.31 c 0.39,0 0.84,0 1.44,0 0.6,0 1,0 1.33,0 a 0.21,0.21 0 0 1 0,0.31 h -0.16 c -0.43,0.06 -0.52,0.12 -0.52,0.22 a 6.18,6.18 0 0 0 0.38,1 c 0.46,0.92 0.92,1.89 1.4,2.75 0.38,-0.66 0.79,-1.38 1.16,-2.1 a 11.21,11.21 0 0 0 0.8,-1.64 0.67,0.67 0 0 0 -0.52,-0.2 h -0.22 a 0.21,0.21 0 0 1 0,-0.31 c 0.44,0 0.8,0 1.19,0 0.39,0 0.73,0 1.15,0 a 0.21,0.21 0 0 1 0,0.31 l -0.35,0.06 c -0.64,0.11 -1,0.89 -1.64,2 l -0.78,1.35 a 2.85,2.85 0 0 0 -0.58,2 v 0.64 z"
       style="stroke-width:0.673932" />
    <path
       id="path24"
       d="m 21,43 a 31.73,31.73 0 0 0 3.73,-2.44 V 28 L 21,25.57 Z"
       style="stroke-width:0.673932" />
    <path
       id="path26"
       d="m 21,16.89 3.73,2.48 V 13 Q 22.87,13 21,12.94 v 4 z"
       style="stroke-width:0.673932" />
    <path
       id="path28"
       d="M 32.18,13.7 C 30.94,13.54 29.7,13.41 28.45,13.3 v 8.55 l 3.73,2.48 z"
       style="stroke-width:0.673932" />
    <path
       id="path30"
       d="m 28.45,30.53 v 6.82 A 37.89,37.89 0 0 0 32.18,33 v 0 z"
       style="stroke-width:0.673932" />
    <path
       id="path32"
       d="M 32.18,33 Z"
       style="stroke-width:0.673932" />
    <path
       id="path34"
       d="m 35.9,14.26 v 12.55 0 A 42.85,42.85 0 0 0 39.59,15 H 39.46 C 38.28,14.75 37.09,14.53 35.9,14.33"
       style="stroke-width:0.673932" />
    <polygon
       id="polygon36"
       points="24.73,19.38 24.73,28.05 28.45,30.53 28.45,21.85 "
       style="stroke-width:0.673932" />
    <path
       id="path38"
       d="M 32.18,24.33 V 33 33 a 38.49,38.49 0 0 0 3.72,-6.17 v 0 z"
       style="stroke-width:0.673932" />
    <path
       id="path40"
       d="M 35.9,26.84 Z"
       style="stroke-width:0.673932" />
    <path
       id="path42"
       d="m 12.83,28.61 a 5.86,5.86 0 0 0 2.81,-1.75 11.49,11.49 0 0 0 -1.43,-0.41 9,9 0 0 1 -1.38,2.16"
       style="stroke-width:0.673932" />
    <path
       id="path44"
       d="M 6.92,26.87 A 5.85,5.85 0 0 0 9.73,28.62 9.05,9.05 0 0 1 8.35,26.46 11.68,11.68 0 0 0 6.92,26.88"
       style="stroke-width:0.673932" />
    <path
       id="path46"
       d="M 10.74,17.84 A 8.29,8.29 0 0 0 9.46,19.7 c 0.4,0.05 0.82,0.09 1.27,0.11 v -2 z"
       style="stroke-width:0.673932" />
    <path
       id="path48"
       d="M 14.58,25.44 A 12.4,12.4 0 0 1 16.3,26 5.79,5.79 0 0 0 17.11,23.55 h -2.18 a 8.39,8.39 0 0 1 -0.35,1.92"
       style="stroke-width:0.673932" />
    <path
       id="path50"
       d="m 9.73,17.34 a 5.86,5.86 0 0 0 -2.81,1.75 11.52,11.52 0 0 0 1.43,0.42 9.06,9.06 0 0 1 1.38,-2.16"
       style="stroke-width:0.673932" />
    <path
       id="path52"
       d="m 15.64,19.09 a 5.85,5.85 0 0 0 -2.81,-1.74 9,9 0 0 1 1.38,2.16 11.57,11.57 0 0 0 1.43,-0.42"
       style="stroke-width:0.673932" />
    <path
       id="path54"
       d="M 14.93,22.44 H 17.1 A 5.77,5.77 0 0 0 16.3,20 a 12.4,12.4 0 0 1 -1.71,0.53 8.43,8.43 0 0 1 0.34,1.92"
       style="stroke-width:0.673932" />
    <path
       id="path56"
       d="m 11.81,28.13 a 8.22,8.22 0 0 0 1.28,-1.87 c -0.4,-0.05 -0.83,-0.09 -1.28,-0.11 v 2 z"
       style="stroke-width:0.673932" />
    <path
       id="path58"
       d="m 10.74,23.52 h -2 A 7.24,7.24 0 0 0 9,25.23 14.74,14.74 0 0 1 10.69,25.08 v -1.56 z"
       style="stroke-width:0.673932" />
    <path
       id="path60"
       d="m 11.81,25.08 a 14.66,14.66 0 0 1 1.7,0.15 7.23,7.23 0 0 0 0.34,-1.72 h -2 v 1.56 z"
       style="stroke-width:0.673932" />
    <path
       id="path62"
       d="m 13.1,19.7 a 8.11,8.11 0 0 0 -1.29,-1.87 v 2 c 0.46,0 0.89,-0.05 1.29,-0.11"
       style="stroke-width:0.673932" />
    <path
       id="path64"
       d="m 13.85,22.44 a 7.24,7.24 0 0 0 -0.34,-1.72 15,15 0 0 1 -1.7,0.16 v 1.56 h 2 z"
       style="stroke-width:0.673932" />
    <path
       id="path66"
       d="m 9.46,26.26 a 8.45,8.45 0 0 0 1.27,1.86 v -2 q -0.68,0 -1.27,0.11"
       style="stroke-width:0.673932" />
    <path
       id="path68"
       d="M 8,20.52 A 12.51,12.51 0 0 1 6.26,20 5.84,5.84 0 0 0 5.46,22.45 H 7.63 A 8.43,8.43 0 0 1 8,20.52"
       style="stroke-width:0.673932" />
    <path
       id="path70"
       d="M 10.74,20.88 A 14.62,14.62 0 0 1 9,20.73 7.23,7.23 0 0 0 8.66,22.45 h 2 v -1.57 z"
       style="stroke-width:0.673932" />
    <path
       id="path72"
       d="M 7.63,23.52 H 5.45 A 5.83,5.83 0 0 0 6.26,26 12.74,12.74 0 0 1 8,25.44 8.36,8.36 0 0 1 7.65,23.52"
       style="stroke-width:0.673932" />
    <path
       id="path74"
       d="M 0.66,15 C 3.4,31.87 14,40.11 19.25,43 V 12.94 a 93.77,93.77 0 0 0 -18.46,2 z m 10.61,1.09 A 6.93,6.93 0 1 1 4.35,23 6.93,6.93 0 0 1 11.28,16.07"
       style="stroke-width:0.673932" />
    <path
       id="path76"
       d="M 39.45,2 V 2 A 92.57,92.57 0 0 0 0.79,2 V 2 A 1,1 0 0 0 0,3 V 6.52 A 53.61,53.61 0 0 0 0.39,13 96,96 0 0 1 39.86,13 54.19,54.19 0 0 0 40.25,6.49 V 3 a 1,1 0 0 0 -0.8,-1 m -4.35,8.69 a 84.23,84.23 0 0 0 -15,-1.2 v 0 a 84.19,84.19 0 0 0 -15,1.2 0.22,0.22 0 0 1 -0.24,-0.32 l 3.19,-7 c 0,-0.06 2.09,-1.08 2.09,-1.08 a 20.71,20.71 0 0 1 9.93,0.8 v 0 A 20.7,20.7 0 0 1 30,2.29 c 0,0 2.06,1 2.09,1.08 l 3.18,7 a 0.22,0.22 0 0 1 -0.24,0.32"
       style="stroke-width:0.673932" />
    <path
       id="path78"
       d="M 29.23,3.45 30.57,7 A 19.39,19.39 0 0 0 21.04,8 V 8.39 C 24.65,8.25 29.21,8.05 32.9,8.85 l -2,-4.62 z"
       style="stroke-width:0.673932" />
    <path
       id="path80"
       d="M 9.64,7 11,3.45 9.34,4.22 7.34,8.85 C 11,8.06 15.55,8.26 19.16,8.39 V 8.06 A 19.37,19.37 0 0 0 9.64,7"
       style="stroke-width:0.673932" />
    <path
       id="path82"
       d="m 52.15,9.33 c 0,-3.16 -0.28,-3.5 -2,-3.64 L 49.44,5.63 A 0.56,0.56 0 0 1 49.5,4.92 C 51.18,5 52.15,5 53.34,5 c 1.19,0 2.1,0 3.24,-0.09 a 0.56,0.56 0 0 1 0.06,0.71 l -0.43,0.06 c -1.68,0.23 -1.74,0.63 -1.74,3.64 v 10.56 a 15.82,15.82 0 0 1 -0.65,5.52 6.18,6.18 0 0 1 -5.61,4.1 c -0.34,0 -1.22,0 -1.22,-0.6 a 1.34,1.34 0 0 1 1,-1.31 3.46,3.46 0 0 1 1.05,0.17 4.4,4.4 0 0 0 1.2,0.2 1.21,1.21 0 0 0 1.14,-0.74 c 0.65,-1.34 0.74,-5.6 0.74,-7.14 V 9.33 Z"
       style="stroke-width:0.673932" />
    <path
       id="path84"
       d="m 56.58,16 a 8.3,8.3 0 0 1 8.54,-8.47 7.9,7.9 0 0 1 8.33,8.23 8.19,8.19 0 0 1 -8.33,8.38 c -5.33,0 -8.54,-3.82 -8.54,-8.14 m 14.47,0.5 c 0,-4 -1.75,-8.23 -6.33,-8.23 -2.5,0 -5.74,1.71 -5.74,7 0,3.55 1.73,8.16 6.45,8.16 2.88,0 5.62,-2.16 5.62,-6.89"
       style="stroke-width:0.673932" />
    <path
       id="path86"
       d="m 78.91,16 c -1.15,0 -1.2,0 -1.2,0.77 v 3.38 c 0,2.52 0.12,2.86 1.46,3 l 0.7,0.07 a 0.47,0.47 0 0 1 0,0.6 c -1.3,0 -2.11,-0.07 -3,-0.07 -0.89,0 -1.85,0 -2.78,0.07 a 0.46,0.46 0 0 1 0,-0.6 l 0.41,-0.07 c 1.34,-0.24 1.39,-0.48 1.39,-3 v -8.61 c 0,-2.52 -0.17,-2.93 -1.42,-3 h -0.62 a 0.47,0.47 0 0 1 0,-0.6 c 1.18,0 2,0.07 3,0.07 1,0 1.75,0 2.78,-0.07 a 0.47,0.47 0 0 1 0,0.6 h -0.46 c -1.39,0.14 -1.44,0.5 -1.44,3 v 2.76 c 0,0.74 0,0.77 1.2,0.77 h 6.86 c 1.15,0 1.2,0 1.2,-0.77 v -2.76 c 0,-2.52 0,-2.88 -1.46,-3 h -0.46 a 0.47,0.47 0 0 1 0,-0.6 c 1.1,0 1.92,0.07 2.9,0.07 0.98,0 1.75,0 2.83,-0.07 a 0.47,0.47 0 0 1 0,0.6 h -0.5 c -1.39,0.14 -1.44,0.5 -1.44,3 v 8.64 c 0,2.52 0,2.83 1.44,3 l 0.7,0.07 a 0.47,0.47 0 0 1 0,0.6 c -1.15,0 -2,-0.07 -2.9,-0.07 -0.9,0 -1.85,0 -2.9,0.07 a 0.46,0.46 0 0 1 0,-0.6 l 0.46,-0.07 C 87,22.94 87,22.7 87,20.18 v -3.39 c 0,-0.72 0,-0.77 -1.2,-0.77 h -6.89 z"
       style="stroke-width:0.673932" />
    <path
       id="path88"
       d="m 107.35,19.7 c 0,0.72 0,3.58 0.07,4.2 a 0.43,0.43 0 0 1 -0.45,0.26 c -0.29,-0.41 -1,-1.25 -3.07,-3.62 L 98.33,14.2 C 97.68,13.46 96,11.49 95.54,11 v 0 a 6,6 0 0 0 -0.12,1.56 v 5.23 c 0,1.13 0,4.25 0.43,5 a 1.58,1.58 0 0 0 1.22,0.46 l 0.74,0.07 a 0.44,0.44 0 0 1 0,0.6 c -1.08,0 -1.92,-0.07 -2.81,-0.07 -0.89,0 -1.66,0 -2.5,0.07 a 0.45,0.45 0 0 1 0,-0.6 L 93,23.18 a 1.29,1.29 0 0 0 1.06,-0.48 23.23,23.23 0 0 0 0.31,-4.94 V 10.82 A 2.2,2.2 0 0 0 93.84,9.09 2.61,2.61 0 0 0 92.35,8.51 L 92,8.47 a 0.42,0.42 0 0 1 0,-0.6 c 1,0.07 2.28,0.07 2.71,0.07 a 7.57,7.57 0 0 0 1.1,-0.07 c 0.48,1.23 3.31,4.39 4.1,5.28 l 2.33,2.61 c 1.66,1.85 2.83,3.19 4,4.34 v 0 a 2.41,2.41 0 0 0 0.1,-1 V 14 c 0,-1.13 0,-4.25 -0.48,-5 a 2.17,2.17 0 0 0 -1.49,-0.48 h -0.41 a 0.4,0.4 0 0 1 0,-0.6 c 1.1,0 1.92,0.07 2.83,0.07 0.91,0 1.65,0 2.47,-0.07 a 0.42,0.42 0 0 1 0,0.6 h -0.34 a 2.12,2.12 0 0 0 -1.35,0.5 c -0.41,0.86 -0.36,3.84 -0.36,4.94 v 5.74 z"
       style="stroke-width:0.673932" />
    <path
       id="path90"
       d="m 113.69,24.16 a 7.48,7.48 0 0 1 -3.74,-0.89 11.13,11.13 0 0 1 -0.65,-3.36 0.42,0.42 0 0 1 0.58,-0.07 c 0.36,1.22 1.34,3.58 4.13,3.58 a 2.73,2.73 0 0 0 3,-2.76 3.61,3.61 0 0 0 -2,-3.36 l -2.28,-1.49 a 5.12,5.12 0 0 1 -2.59,-4.13 c 0,-2.28 1.78,-4.13 4.9,-4.13 a 9.33,9.33 0 0 1 2.23,0.31 3.14,3.14 0 0 0 0.84,0.14 10.49,10.49 0 0 1 0.43,2.93 0.48,0.48 0 0 1 -0.6,0.07 3.14,3.14 0 0 0 -3.24,-2.7 c -2.35,0 -2.86,1.56 -2.86,2.67 a 3.78,3.78 0 0 0 2,3 l 1.92,1.2 a 5.4,5.4 0 0 1 3,4.61 c 0,2.64 -2,4.44 -5.11,4.44"
       style="stroke-width:0.673932" />
    <path
       id="path92"
       d="m 133,14.59 c -1.37,0 -1.42,0.06 -1.42,0.91 v 4 c 0,3 0.14,3.39 1.73,3.56 l 0.83,0.09 a 0.55,0.55 0 0 1 -0.06,0.71 c -1.54,-0.06 -2.5,-0.08 -3.61,-0.08 -1.11,0 -2.19,0.06 -3.3,0.08 a 0.55,0.55 0 0 1 -0.06,-0.71 l 0.48,-0.09 c 1.59,-0.29 1.65,-0.57 1.65,-3.56 V 9.27 c 0,-3 -0.2,-3.47 -1.68,-3.58 l -0.74,-0.06 a 0.56,0.56 0 0 1 0.06,-0.71 c 1.39,0 2.36,0.08 3.58,0.08 1.22,0 2.08,0 3.3,-0.08 a 0.56,0.56 0 0 1 0.06,0.71 l -0.54,0.06 c -1.65,0.17 -1.71,0.6 -1.71,3.58 v 3.27 c 0,0.88 0.06,0.91 1.42,0.91 h 8.14 c 1.37,0 1.42,0 1.42,-0.91 V 9.27 c 0,-3 -0.06,-3.41 -1.74,-3.58 l -0.54,-0.06 a 0.56,0.56 0 0 1 0.06,-0.71 C 141.7,5 142.67,5 143.83,5 c 1.16,0 2.08,0 3.36,-0.08 a 0.56,0.56 0 0 1 0.06,0.71 l -0.6,0.06 c -1.65,0.17 -1.71,0.6 -1.71,3.58 v 10.24 c 0,3 0.06,3.36 1.71,3.56 l 0.68,0.09 a 0.55,0.55 0 0 1 -0.06,0.71 c -1.36,-0.06 -2.33,-0.08 -3.44,-0.08 -1.11,0 -2.19,0 -3.44,0.08 a 0.55,0.55 0 0 1 -0.06,-0.71 l 0.54,-0.09 c 1.74,-0.29 1.74,-0.57 1.74,-3.56 v -4 c 0,-0.85 -0.06,-0.91 -1.42,-0.91 H 133 Z"
       style="stroke-width:0.673932" />
    <path
       id="path94"
       d="m 147.15,16 a 8.3,8.3 0 0 1 8.54,-8.47 7.9,7.9 0 0 1 8.31,8.25 8.19,8.19 0 0 1 -8.33,8.38 c -5.33,0 -8.54,-3.82 -8.54,-8.14 m 14.47,0.5 c 0,-4 -1.75,-8.23 -6.34,-8.23 -2.5,0 -5.74,1.71 -5.74,7 0,3.55 1.73,8.16 6.46,8.16 2.88,0 5.62,-2.16 5.62,-6.89"
       style="stroke-width:0.673932" />
    <path
       id="path96"
       d="m 168.37,20.18 c 0,2.52 0,2.83 1.58,3 l 0.65,0.07 a 0.47,0.47 0 0 1 0,0.6 c -1.37,0 -2.16,-0.07 -3.12,-0.07 -0.96,0 -1.87,0 -2.93,0.07 a 0.47,0.47 0 0 1 0,-0.6 l 0.5,-0.07 c 1.39,-0.19 1.44,-0.48 1.44,-3 v -8.86 c 0,-2 0,-2.45 -1.13,-2.57 l -0.86,-0.1 a 0.4,0.4 0 0 1 0,-0.6 37.61,37.61 0 0 1 4.75,-0.19 8.66,8.66 0 0 1 4.61,1 4.15,4.15 0 0 1 1.92,3.6 4.07,4.07 0 0 1 -2.4,3.82 8.1,8.1 0 0 1 -3.38,0.72 0.3,0.3 0 0 1 0,-0.48 c 2.59,-0.48 3.53,-1.95 3.53,-4 a 3.54,3.54 0 0 0 -3.86,-3.84 c -1.27,0 -1.3,0.09 -1.3,0.86 v 10.7 z"
       style="stroke-width:0.673932" />
    <path
       id="path98"
       d="m 178.35,11.54 c 0,-2.52 0,-2.9 -1.44,-3 h -0.6 a 0.48,0.48 0 0 1 0,-0.6 c 1.18,0 1.94,0.07 3,0.07 1.06,0 1.75,0 2.79,-0.07 a 0.47,0.47 0 0 1 0,0.6 h -0.45 c -1.39,0.14 -1.44,0.5 -1.44,3 v 2.76 c 0,0.45 0,0.91 0.31,0.91 a 1.36,1.36 0 0 0 0.67,-0.26 c 0.34,-0.29 1,-0.91 1.22,-1.15 L 185,11.23 a 27.33,27.33 0 0 0 1.87,-2 0.71,0.71 0 0 0 0.17,-0.39 c 0,-0.1 -0.1,-0.17 -0.41,-0.24 l -0.65,-0.14 a 0.4,0.4 0 0 1 0,-0.6 c 0.84,0 1.8,0.07 2.64,0.07 0.84,0 1.66,0 2.38,-0.07 a 0.44,0.44 0 0 1 0,0.6 5.92,5.92 0 0 0 -2.23,0.67 23.88,23.88 0 0 0 -3.36,2.78 l -2.16,2 a 1.51,1.51 0 0 0 -0.55,0.74 1.54,1.54 0 0 0 0.46,0.74 c 2.28,2.61 4.13,4.78 6,6.74 a 2.78,2.78 0 0 0 1.83,1 l 0.46,0.07 a 0.42,0.42 0 0 1 0,0.6 c -0.62,0 -1.28,-0.07 -2.41,-0.07 -1.13,0 -1.83,0 -2.93,0.07 a 0.44,0.44 0 0 1 -0.1,-0.6 l 0.55,-0.1 a 0.63,0.63 0 0 0 0.58,-0.24 1.29,1.29 0 0 0 -0.34,-0.55 c -0.46,-0.58 -1.08,-1.22 -2,-2.26 l -1.92,-2.16 c -1.37,-1.54 -1.75,-2 -2.33,-2 -0.36,0 -0.41,0.31 -0.41,1.15 v 3.1 c 0,2.52 0,2.85 1.39,3 l 0.65,0.07 a 0.47,0.47 0 0 1 0,0.6 c -1.18,0 -2,-0.07 -2.93,-0.07 -0.93,0 -1.8,0 -2.78,0.07 a 0.46,0.46 0 0 1 0,-0.6 l 0.48,-0.07 c 1.27,-0.19 1.32,-0.48 1.32,-3 v -8.6 z"
       style="stroke-width:0.673932" />
    <path
       id="path100"
       d="m 194.83,11.59 c 0,-2.54 0,-3 -1.46,-3.07 h -0.6 a 0.47,0.47 0 0 1 0,-0.6 c 1.2,0 2,0.07 3,0.07 1,0 1.78,0 3,-0.07 a 0.47,0.47 0 0 1 0,0.6 h -0.6 c -1.42,0.12 -1.46,0.53 -1.46,3.07 v 8.54 c 0,2.55 0,2.88 1.46,3 l 0.6,0.07 a 0.47,0.47 0 0 1 0,0.6 c -1.2,0 -2,-0.07 -3,-0.07 -1,0 -1.73,0 -2.93,0.07 a 0.47,0.47 0 0 1 0,-0.6 l 0.51,-0.07 c 1.42,-0.17 1.46,-0.5 1.46,-3 v -8.54 z"
       style="stroke-width:0.673932" />
    <path
       id="path102"
       d="m 215.59,19.7 c 0,0.72 0,3.58 0.07,4.2 a 0.43,0.43 0 0 1 -0.46,0.26 c -0.29,-0.41 -1,-1.25 -3.07,-3.62 l -5.57,-6.34 c -0.65,-0.74 -2.28,-2.71 -2.78,-3.24 v 0 a 6,6 0 0 0 -0.12,1.56 v 5.23 c 0,1.13 0,4.25 0.43,5 a 1.57,1.57 0 0 0 1.22,0.46 l 0.69,0.04 a 0.44,0.44 0 0 1 0,0.6 c -1.08,0 -1.92,-0.07 -2.81,-0.07 -0.89,0 -1.66,0 -2.5,0.07 a 0.44,0.44 0 0 1 0,-0.6 l 0.65,-0.07 a 1.29,1.29 0 0 0 1.06,-0.48 23.17,23.17 0 0 0 0.31,-4.94 v -6.94 a 2.2,2.2 0 0 0 -0.53,-1.73 2.61,2.61 0 0 0 -1.49,-0.58 h -0.41 a 0.42,0.42 0 0 1 0,-0.6 c 1,0.07 2.28,0.07 2.71,0.07 a 7.58,7.58 0 0 0 1.1,-0.07 c 0.48,1.23 3.31,4.39 4.1,5.28 l 2.33,2.61 c 1.66,1.85 2.83,3.19 4,4.34 v 0 a 2.43,2.43 0 0 0 0.1,-1 V 14 c 0,-1.13 0,-4.25 -0.48,-5 a 2.16,2.16 0 0 0 -1.49,-0.48 h -0.41 a 0.4,0.4 0 0 1 0,-0.6 c 1.1,0 1.92,0.07 2.83,0.07 0.91,0 1.66,0 2.47,-0.07 a 0.42,0.42 0 0 1 0,0.6 h -0.34 a 2.12,2.12 0 0 0 -1.34,0.5 c -0.41,0.86 -0.36,3.84 -0.36,4.94 v 5.74 z"
       style="stroke-width:0.673932" />
    <path
       id="path104"
       d="m 221.89,24.16 a 7.49,7.49 0 0 1 -3.75,-0.89 11.13,11.13 0 0 1 -0.65,-3.36 0.42,0.42 0 0 1 0.58,-0.07 c 0.36,1.22 1.34,3.58 4.13,3.58 a 2.73,2.73 0 0 0 3,-2.76 3.61,3.61 0 0 0 -2,-3.36 L 221,15.81 a 5.12,5.12 0 0 1 -2.59,-4.13 c 0,-2.28 1.78,-4.13 4.9,-4.13 a 9.34,9.34 0 0 1 2.23,0.31 3.15,3.15 0 0 0 0.84,0.14 10.46,10.46 0 0 1 0.43,2.93 0.48,0.48 0 0 1 -0.6,0.07 3.14,3.14 0 0 0 -3.31,-2.7 c -2.36,0 -2.9,1.56 -2.9,2.7 a 3.78,3.78 0 0 0 2,3 l 1.92,1.2 a 5.41,5.41 0 0 1 3,4.61 c 0,2.64 -2,4.44 -5.11,4.44"
       style="stroke-width:0.673932" />
  </g>
</svg>
